<svg width="40" height="40" viewBox="0 0 40 40" fill="none" xmlns="http://www.w3.org/2000/svg">
    <circle cx="20" cy="20" r="20" fill="white"/>
    <path d="M16.6555 13.5361C18.6694 13.5361 19.2448 14.3992 20.1798 14.3992C21.4025 14.3992 21.6902 13.5361 23.9918 13.5361C26.1208 13.5361 27.66 14.7589 28.1635 15.55C27.3723 15.9576 25.7899 17.2619 25.7899 19.5059C25.7899 21.75 27.7079 23.1741 28.6669 23.6056C27.8038 26.2669 25.4303 29 23.9199 29C22.4095 29 21.906 28.1369 20.2517 28.1369C18.5974 28.1369 18.5255 29 16.7274 29C14.9293 29 11.333 24.7564 11.333 19.7936C11.333 14.8308 14.6416 13.5361 16.6555 13.5361Z" fill="#1E1E1E"/>
    <path d="M19.873 13.8209C21.0325 13.7648 22.1677 13.2514 22.9853 12.3025C23.8028 11.3537 24.1428 10.1551 24.027 9C22.8675 9.05615 21.7323 9.56955 20.9147 10.5184C20.0971 11.4673 19.7571 12.6658 19.873 13.8209Z" fill="#1E1E1E"/>
</svg>
