<svg width="60" height="60" viewBox="0 0 60 60" fill="none" xmlns="http://www.w3.org/2000/svg">
    <g filter="url(#filter0_d_3949_40777)">
        <circle cx="30" cy="30" r="20" fill="white"/>
        <path d="M33.1667 49.7507C42.7076 48.233 50 39.9681 50 30C50 18.9543 41.0457 10 30 10C18.9543 10 10 18.9543 10 30C10 39.9681 17.2924 48.233 26.8333 49.7507V35.7778H21.7778V30H26.8333V25.8889C26.8333 18.5 32.1667 17.7778 34.5556 17.7778C36.4667 17.7778 38.2407 18.0371 38.8889 18.1667V23.1111H36.2778C35.5 23.1111 33.1667 23.3334 33.1667 26.1111V30H38.6667L37.7778 35.7778H33.1667V49.7507Z" fill="#227BEF"/>
    </g>
    <defs>
        <filter id="filter0_d_3949_40777" x="0" y="0" width="60" height="60" filterUnits="userSpaceOnUse" color-interpolation-filters="sRGB">
            <feFlood flood-opacity="0" result="BackgroundImageFix"/>
            <feColorMatrix in="SourceAlpha" type="matrix" values="0 0 0 0 0 0 0 0 0 0 0 0 0 0 0 0 0 0 127 0" result="hardAlpha"/>
            <feOffset/>
            <feGaussianBlur stdDeviation="5"/>
            <feComposite in2="hardAlpha" operator="out"/>
            <feColorMatrix type="matrix" values="0 0 0 0 0 0 0 0 0 0 0 0 0 0 0 0 0 0 0.15 0"/>
            <feBlend mode="normal" in2="BackgroundImageFix" result="effect1_dropShadow_3949_40777"/>
            <feBlend mode="normal" in="SourceGraphic" in2="effect1_dropShadow_3949_40777" result="shape"/>
        </filter>
    </defs>
</svg>
