<svg width="40" height="40" viewBox="0 0 40 40" fill="none" xmlns="http://www.w3.org/2000/svg">
    <circle cx="20" cy="20" r="20" fill="white"/>
    <path d="M23.1667 39.7507C32.7076 38.233 40 29.9681 40 20C40 8.9543 31.0457 0 20 0C8.9543 0 0 8.9543 0 20C0 29.9681 7.29242 38.233 16.8333 39.7507V25.7778H11.7778V20H16.8333V15.8889C16.8333 8.50002 22.1667 7.7778 24.5556 7.7778C26.4667 7.7778 28.2407 8.03706 28.8889 8.16669V13.1111H26.2778C25.5 13.1111 23.1667 13.3334 23.1667 16.1111V20H28.6667L27.7778 25.7778H23.1667V39.7507Z" fill="#227BEF"/>
</svg>
