<svg width="20" height="24" viewBox="0 0 20 24" fill="none" xmlns="http://www.w3.org/2000/svg">
    <path fill-rule="evenodd" clip-rule="evenodd"
          d="M19.13 11.1943C19.6036 11.9073 19.8753 12.7334 19.9166 13.5862L19.8856 13.8017C19.9213 14.9688 19.5318 16.1095 18.7884 17.0148C17.8392 18.0391 16.5414 18.679 15.145 18.8113C11.7053 19.1889 8.23403 19.1889 4.7943 18.8113C3.41828 18.67 2.14314 18.0304 1.21296 17.0148C0.457365 16.1225 0.0561846 14.9872 0.0847387 13.8223V13.6786C0.141646 12.8002 0.434719 11.9531 0.933495 11.2251L1.0163 11.1225C1.53502 10.5387 1.89172 9.83119 2.05137 9.06938V8.18655V6.9547C2.19814 6.58385 2.57718 6.35644 2.97652 6.39965C3.37585 6.44285 3.69653 6.74596 3.75923 7.13948V8.16602V9.25416C3.76326 9.29169 3.76326 9.32955 3.75923 9.36708C3.54371 10.4261 3.0511 11.4103 2.33084 12.2209C2.05346 12.6591 1.89645 13.1616 1.87541 13.6786V13.9044C1.85243 14.6315 2.09503 15.3424 2.55855 15.9062C3.20119 16.5645 4.06056 16.9724 4.98061 17.0559C8.31061 17.4152 11.6701 17.4152 15.0001 17.0559C15.9453 16.9699 16.8256 16.5424 17.4739 15.8548C17.9146 15.3043 18.1456 14.6173 18.126 13.9147V13.6786C18.1047 13.1599 17.9516 12.6549 17.6809 12.2106C16.9307 11.4093 16.4091 10.4243 16.1697 9.35681C16.1657 9.31928 16.1657 9.28143 16.1697 9.24389V8.14549V7.11895C15.8695 4.01879 12.754 2.09915 10.0421 2.09915C8.88915 2.09652 7.75516 2.39006 6.75058 2.95118C6.47241 3.11702 6.12529 3.11957 5.84468 2.95783C5.56407 2.7961 5.39446 2.49571 5.40204 2.17392C5.40962 1.85212 5.5932 1.55993 5.88112 1.41137C7.12594 0.713913 8.52959 0.342926 9.95929 0.333496C13.5406 0.333496 17.5567 2.85879 18.0121 6.91364V8.12496V9.02832C18.1676 9.79156 18.5248 10.5001 19.0472 11.0814C19.0781 11.1165 19.1059 11.1543 19.13 11.1943ZM10.2936 21.8361C10.9018 21.7456 11.4484 21.418 11.8122 20.926H11.8225C12.1369 20.549 12.7 20.4962 13.0801 20.808C13.4603 21.1198 13.5136 21.6782 13.1992 22.0552C12.4241 23.0605 11.2249 23.6551 9.94904 23.6669C8.67679 23.6519 7.48213 23.0576 6.70928 22.0552C6.39487 21.6782 6.44816 21.1198 6.82831 20.808C7.20846 20.4962 7.77151 20.549 8.08592 20.926C8.224 21.1091 8.38782 21.2716 8.5724 21.4085C9.06575 21.7728 9.6853 21.9267 10.2936 21.8361Z"
          fill="#1E1E1E"/>
</svg>
