<svg width="144" height="22" viewBox="0 0 144 22" fill="none" xmlns="http://www.w3.org/2000/svg">
    <path fill-rule="evenodd" clip-rule="evenodd"
          d="M39.1395 21.1988C41.761 21.1988 44.1438 20.3068 45.8716 18.5782C47.6001 16.849 48.6601 14.2955 48.6601 10.9971C48.6601 7.69867 47.6001 5.1452 45.8716 3.41595C44.1438 1.68738 41.761 0.79541 39.1395 0.79541C36.5179 0.79541 34.1351 1.68738 32.4073 3.41595C30.6788 5.1452 29.6188 7.69867 29.6188 10.9971C29.6188 14.2955 30.6788 16.849 32.4073 18.5782C34.1351 20.3068 36.5179 21.1988 39.1395 21.1988ZM44.9412 10.9971C44.9412 13.2343 44.2838 14.9388 43.2371 16.0823C42.1911 17.2251 40.7447 17.8204 39.1395 17.8204C37.5342 17.8204 36.0879 17.2251 35.0418 16.0823C33.9951 14.9388 33.3377 13.2343 33.3377 10.9971C33.3377 8.75984 33.9951 7.05535 35.0418 5.91191C36.0879 4.76907 37.5342 4.1738 39.1395 4.1738C40.7447 4.1738 42.1911 4.76907 43.2371 5.91191C44.2838 7.05535 44.9412 8.75984 44.9412 10.9971Z"
          fill="#1E1E1E"/>
    <path fill-rule="evenodd" clip-rule="evenodd"
          d="M3.55251 0.79541H0.327366C0.145821 0.79541 -0.00489598 0.942546 0.000121781 1.12933C0.0275488 2.15031 0.165617 7.46564 0.165617 10.9971C0.165617 14.5285 0.0275489 19.8439 0.0001218 20.8648C-0.00489596 21.0516 0.145821 21.1988 0.327367 21.1988H3.55251C3.73304 21.1988 3.88482 21.0534 3.87978 20.8657C3.85615 19.9862 3.74993 15.9019 3.72135 12.5286C3.7213 12.5222 3.72636 12.516 3.7346 12.516H12.5735C12.5817 12.516 12.5868 12.5222 12.5868 12.5286C12.5582 15.9019 12.452 19.9862 12.4283 20.8657C12.4233 21.0534 12.5751 21.1988 12.7556 21.1988H15.9807C16.1623 21.1988 16.313 21.0516 16.308 20.8648C16.2806 19.8439 16.1425 14.5285 16.1425 10.9971C16.1425 7.46564 16.2806 2.15032 16.308 1.12933C16.313 0.942548 16.1623 0.79541 15.9807 0.79541H12.7556C12.5745 0.79541 12.4233 0.941795 12.4283 1.129C12.4512 1.97996 12.5512 5.82319 12.5836 9.12485C12.5837 9.1315 12.5784 9.13764 12.5704 9.13764H3.73772C3.72967 9.13764 3.72441 9.1315 3.72447 9.12485C3.75693 5.82319 3.8569 1.97996 3.87976 1.129C3.88479 0.941795 3.73363 0.79541 3.55251 0.79541Z"
          fill="#1E1E1E"/>
    <path d="M98.2294 1.46311V20.5311C98.2294 20.8998 98.5283 21.1988 98.8971 21.1988H113.198C113.379 21.1988 113.525 21.0523 113.525 20.8716V18.0625C113.525 17.8817 113.379 17.7353 113.198 17.7353H102.217C102.21 17.7353 102.204 17.7293 102.204 17.722V12.6996C102.204 12.6922 102.21 12.6863 102.217 12.6863H111.836C112.017 12.6863 112.163 12.5398 112.163 12.3591V9.12434C112.163 8.94364 112.017 8.79714 111.836 8.79714H102.132C102.124 8.79714 102.119 8.79119 102.119 8.78384V4.35735C102.119 4.35001 102.124 4.34405 102.132 4.34405H113.028C113.208 4.34405 113.355 4.19756 113.355 4.01685V1.12261C113.355 0.941902 113.208 0.79541 113.028 0.79541H98.8971C98.5283 0.79541 98.2294 1.09435 98.2294 1.46311Z"
          fill="#1E1E1E"/>
    <path d="M128.704 1.46311V20.5311C128.704 20.8998 129.003 21.1988 129.372 21.1988H143.673C143.854 21.1988 144 21.0523 144 20.8716V18.0625C144 17.8817 143.854 17.7353 143.673 17.7353H132.692C132.684 17.7353 132.678 17.7293 132.678 17.722V12.6996C132.678 12.6922 132.684 12.6863 132.692 12.6863H142.822C143.002 12.6863 143.149 12.5398 143.149 12.3591V9.12434C143.149 8.94364 143.002 8.79714 142.822 8.79714H132.607C132.599 8.79714 132.593 8.79119 132.593 8.78384V4.35735C132.593 4.35001 132.599 4.34405 132.607 4.34405H143.503C143.683 4.34405 143.83 4.19756 143.83 4.01685V1.12261C143.83 0.941902 143.683 0.79541 143.503 0.79541H129.372C129.003 0.79541 128.704 1.09435 128.704 1.46311Z"
          fill="#1E1E1E"/>
    <path d="M62.2933 21.1988H65.1865C65.368 21.1988 65.5148 21.0511 65.5137 20.8696L65.4319 7.38386L72.2742 14.3871C72.4026 14.5185 72.6139 14.5185 72.7423 14.3871L79.5846 7.38386L79.5028 20.8696C79.5017 21.0511 79.6485 21.1988 79.83 21.1988H82.7232C82.9039 21.1988 83.0504 21.0523 83.0504 20.8716V1.12261C83.0504 0.941902 82.9039 0.79541 82.7232 0.79541H80.6386C80.4042 0.79541 80.1806 0.893551 80.0219 1.06602L72.518 9.22239C72.5128 9.22812 72.5037 9.22812 72.4985 9.22239L64.9946 1.06602C64.8359 0.893551 64.6123 0.79541 64.3779 0.79541H62.2933C62.1126 0.79541 61.9661 0.941903 61.9661 1.12261V20.8716C61.9661 21.0523 62.1126 21.1988 62.2933 21.1988Z"
          fill="#1E1E1E"/>
</svg>
