<svg width="24" height="24" viewBox="0 0 24 24" fill="none" xmlns="http://www.w3.org/2000/svg">
    <path d="M23.3815 22.0406L19.3712 18.1198V18.1198L19.2772 17.9769C19.1025 17.8029 18.8635 17.7049 18.6141 17.7049C18.3646 17.7049 18.1257 17.8029 17.9509 17.9769V17.9769C14.5428 21.1036 9.29121 21.2735 5.67905 18.374C2.06688 15.4745 1.21499 10.4053 3.68834 6.52821C6.16169 2.65114 11.1928 1.16933 15.445 3.0655C19.6973 4.96167 21.8512 9.64743 20.4782 14.0152C20.3794 14.3307 20.4602 14.6739 20.6902 14.9154C20.9203 15.1569 21.2647 15.26 21.5936 15.1859C21.9225 15.1119 22.1861 14.8719 22.285 14.5564V14.5564C23.9262 9.37309 21.4474 3.79515 16.4522 1.43091C11.4569 -0.933337 5.44435 0.625636 2.30394 5.09933C-0.836477 9.57302 -0.16225 15.6188 3.89046 19.3258C7.94317 23.0327 14.1581 23.2882 18.5149 19.9271L22.0656 23.3986C22.4324 23.7556 23.0252 23.7556 23.392 23.3986C23.7583 23.0366 23.7583 22.4537 23.392 22.0917V22.0917L23.3815 22.0406Z"
          fill="#1E1E1E"/>
</svg>
