<svg width="14" height="12" viewBox="0 0 14 12" fill="none" xmlns="http://www.w3.org/2000/svg">
    <path d="M10.2393 11.9579C10.3066 11.986 10.3777 12.0001 10.4487 12.0001C10.5923 12.0001 10.7329 11.9438 10.8377 11.8364L13.1382 9.49891C13.3521 9.28109 13.3514 8.92917 13.1368 8.71284C12.9214 8.4965 12.5735 8.49724 12.3597 8.71432L10.9981 10.099V2.36425C10.9981 2.05753 10.7527 1.80859 10.4487 1.80859C10.1455 1.80859 9.8994 2.05753 9.8994 2.36425V11.4445C9.8994 11.6697 10.0334 11.8719 10.2393 11.9579Z" fill="#858585"/>
    <path d="M8.44039 10.1918C8.54806 10.3014 8.68942 10.3555 8.83005 10.3555C8.96994 10.3555 9.11057 10.3014 9.21751 10.1933C9.43284 9.97692 9.43357 9.62575 9.2197 9.40793L8.15035 8.32106C7.93501 8.10324 7.58784 8.10324 7.37324 8.31958C7.1579 8.53591 7.15717 8.88783 7.37104 9.10565L8.44039 10.1918Z" fill="#858585"/>
    <path d="M1.21604 3.84156C1.07615 3.84156 0.935522 3.78747 0.828587 3.6793C0.613251 3.46297 0.612518 3.11179 0.827122 2.89397L1.89648 1.8071C2.11108 1.58929 2.45825 1.58929 2.67359 1.80562C2.88819 2.02196 2.88893 2.37388 2.67506 2.59169L1.60497 3.67782C1.49803 3.78747 1.35667 3.84156 1.21604 3.84156Z" fill="#292929"/>
    <path d="M3.90443 10.1905C3.6012 10.1905 3.3551 9.94154 3.3551 9.63482V0.555359C3.3551 0.330132 3.48914 0.127873 3.69495 0.0419308C3.8993 -0.0432702 4.13661 0.00340514 4.29335 0.163435L6.98139 2.89357C7.19599 3.11139 7.19526 3.46331 6.97992 3.67964C6.76459 3.89598 6.41741 3.89598 6.20354 3.67816L4.45376 1.90153V9.63482C4.45376 9.94154 4.20766 10.1905 3.90443 10.1905Z" fill="#292929"/>
</svg>
