<svg width="29" height="28" viewBox="0 0 29 28" fill="none" xmlns="http://www.w3.org/2000/svg">
    <path d="M11.3906 19.9899V23.21C11.3906 23.9224 10.787 24.5 10.0673 24.5H8.04701C6.03304 24.5 4.40039 22.8837 4.40039 20.8899V11.7397C4.40815 10.9547 4.78077 10.2169 5.41053 9.73969L12.2896 4.21957C13.5001 3.26014 15.2207 3.26014 16.4312 4.21957L23.3406 9.72968C23.968 10.2088 24.34 10.9454 24.3507 11.7297V20.8899C24.3507 22.8837 22.7181 24.5 20.7041 24.5H18.6838C17.9816 24.4837 17.4209 23.9154 17.4211 23.22V19.9899C17.4211 19.167 16.7473 18.4999 15.916 18.4999H12.8856C12.0583 18.5054 11.3906 19.1709 11.3906 19.9899Z" stroke="#1E1E1E" stroke-width="1.75" stroke-linecap="round" stroke-linejoin="round"/>
</svg>
