<svg width="29" height="28" viewBox="0 0 29 28" fill="none" xmlns="http://www.w3.org/2000/svg">
    <path d="M8.05628 23.7961C6.92499 23.2654 6.2417 22.4727 6.2417 21.3185C6.2417 18.5863 10.095 17.9041 14.6073 17.9041C19.1439 17.9041 22.9717 18.6118 22.9717 21.3429C22.9717 24.0741 19.1195 24.7574 14.6073 24.7574C13.6965 24.7574 12.8143 24.7289 11.9859 24.6613" stroke="#1E1E1E" stroke-width="1.75" stroke-linecap="round" stroke-linejoin="round"/>
    <path fill-rule="evenodd" clip-rule="evenodd" d="M14.6074 14.007C17.5685 14.007 19.9685 11.6059 19.9685 8.6448C19.9685 5.68369 17.5685 3.28369 14.6074 3.28369C11.6463 3.28369 9.24515 5.68369 9.24515 8.6448C9.23515 11.5959 11.6196 13.997 14.5696 14.007H14.6074Z" stroke="#1E1E1E" stroke-width="1.66667" stroke-linecap="round" stroke-linejoin="round"/>
</svg>
