<svg width="36" height="36" viewBox="0 0 36 36" fill="none" xmlns="http://www.w3.org/2000/svg">
    <path d="M21.6001 5.07909C20.2887 4.32189 19.6329 3.9433 18.9357 3.79511C18.3189 3.664 17.6814 3.664 17.0645 3.79511C16.3674 3.9433 15.7116 4.32189 14.4001 5.07909L8.60977 8.42216C7.29827 9.17935 6.64252 9.55795 6.16561 10.0876C5.74364 10.5563 5.42489 11.1084 5.23001 11.7081C5.00977 12.386 5.00977 13.1432 5.00977 14.6575V21.3437C5.00977 22.8581 5.00977 23.6153 5.23001 24.2931C5.42489 24.8929 5.74364 25.445 6.16561 25.9136C6.64252 26.4433 7.29827 26.8219 8.60976 27.5791L14.4001 30.9222C15.7116 31.6794 16.3674 32.058 17.0645 32.2061C17.6814 32.3372 18.3189 32.3372 18.9357 32.2061C19.6329 32.058 20.2887 31.6794 21.6001 30.9222L27.3905 27.5791C28.702 26.8219 29.3578 26.4433 29.8347 25.9136C30.2567 25.445 30.5754 24.8929 30.7703 24.2931C30.9905 23.6153 30.9905 22.8581 30.9905 21.3437" stroke="#1E1E1E" stroke-width="2.25" stroke-linecap="round" stroke-linejoin="round"/>
    <path fill-rule="evenodd" clip-rule="evenodd" d="M15.5427 17.3625L26.3464 6.55868C27.6924 5.21416 29.8739 5.21416 31.2199 6.55868L32.9793 8.31812C34.3253 9.66408 34.3253 11.8471 32.9793 13.1916L22.1235 24.0475C21.5351 24.6359 20.7371 24.967 19.9044 24.967H14.4888L14.6247 19.5022C14.6449 18.6984 14.9731 17.9321 15.5427 17.3625Z" stroke="#1E1E1E" stroke-width="2.25" stroke-linecap="round" stroke-linejoin="round"/>
    <path d="M24.7061 8.22729L31.3071 14.8284" stroke="#1E1E1E" stroke-width="2.25" stroke-linecap="round" stroke-linejoin="round"/>
</svg>
