<svg width="29" height="28" viewBox="0 0 29 28" fill="none" xmlns="http://www.w3.org/2000/svg">
    <path d="M16.9251 3.95037C15.9051 3.36145 15.395 3.06698 14.8528 2.95173C14.373 2.84975 13.8772 2.84975 13.3974 2.95173C12.8552 3.06698 12.3452 3.36145 11.3251 3.95037L6.82148 6.55054C5.80144 7.13947 5.29141 7.43394 4.92048 7.84589C4.59228 8.2104 4.34436 8.63981 4.19279 9.10629C4.02148 9.63351 4.02148 10.2224 4.02148 11.4003V16.6006C4.02148 17.7785 4.02148 18.3674 4.19279 18.8946C4.34436 19.3611 4.59228 19.7905 4.92048 20.155C5.29141 20.567 5.80143 20.8614 6.82148 21.4504L11.3251 24.0505C12.3452 24.6395 12.8552 24.9339 13.3974 25.0492C13.8772 25.1512 14.373 25.1512 14.8528 25.0492C15.395 24.9339 15.9051 24.6395 16.9251 24.0505L21.4287 21.4504C22.4488 20.8614 22.9588 20.567 23.3298 20.155C23.658 19.7905 23.9059 19.3611 24.0574 18.8946C24.2287 18.3674 24.2287 17.7785 24.2287 16.6006" stroke="#1E1E1E" stroke-width="1.75" stroke-linecap="round" stroke-linejoin="round"/>
    <path fill-rule="evenodd" clip-rule="evenodd" d="M12.2138 13.5042L20.6167 5.1012C21.6635 4.05546 23.3603 4.05546 24.4071 5.1012L25.7756 6.46965C26.8224 7.5165 26.8224 9.21442 25.7756 10.2602L17.3322 18.7036C16.8745 19.1613 16.2539 19.4188 15.6062 19.4188H11.394L11.4997 15.1684C11.5155 14.5432 11.7707 13.9472 12.2138 13.5042Z" stroke="#1E1E1E" stroke-width="1.75" stroke-linecap="round" stroke-linejoin="round"/>
    <path d="M19.3408 6.39893L24.475 11.5331" stroke="#1E1E1E" stroke-width="1.75" stroke-linecap="round" stroke-linejoin="round"/>
</svg>
